# xmcd
# Track frame offsets:
# 150
# 10410
# 18170
# 27090
# 35485
# 43350
# 52827
# 63710
# 74910
# 82755
# 92532
# 101845
# 116290
# 125597
# 136252
# 146507
# 158522
# 166867
#
# Disc length: 2340 seconds
# Revision: 1
# Processed by: cddbd v1.5.2PL0 Copyright (c) Steve Scherf et al.
# Submitted via: VisiTrax 2.11.3.279 - For more info visit www.synapsa.com
#
DISCID=ea092212
DTITLE=Jim Reeves - The Concert Collection
DYEAR=1996
DGENRE=Country
TTITLE0=He'll have to go
TTITLE1=In a mansion stands my love
TTITLE2=Yonder comes a sucker
TTITLE3=Waiting for a train
TTITLE4=Bimbo
TTITLE5=Billy bayou
TTITLE6=Peace in the valley
TTITLE7=When god dips his love in my heart
TTITLE8=Everywhere you go
TTITLE9=Home
TTITLE10=The wind up
TTITLE11=The highway to nowhere
TTITLE12=Beyond a shadow of a doubt
TTITLE13=An evening prayer
TTITLE14=Dear hearts and gentle people
TTITLE15=I've lived a lot in my time
TTITLE16=Sweet evening breeze
TTITLE17=Old time religion
EXTD=
EXTT0=
EXTT1=
EXTT2=
EXTT3=
EXTT4=
EXTT5=
EXTT6=
EXTT7=
EXTT8=
EXTT9=
EXTT10=
EXTT11=
EXTT12=
EXTT13=
EXTT14=
EXTT15=
EXTT16=
EXTT17=
PLAYORDER=
